<svg t="1735177047008" class="icon" viewBox="0 0 1024 1024" version="1.1" xmlns="http://www.w3.org/2000/svg" p-id="11329" width="200" height="200"><path d="M806.848 358.4h78.08a16.64 16.64 0 0 0 16.64-16.768V190.336a5.696 5.696 0 0 0-1.664-4.032c-14.016-13.696-30.592-4.032-30.592 9.6v124.48a5.568 5.568 0 0 1-5.568 5.632h-62.4a5.632 5.632 0 0 0-4.032 1.6c-13.696 14.016-4.032 30.72 9.536 30.72zM726.976 342.72a16.192 16.192 0 1 0 32.32 0 16.192 16.192 0 0 0-32.32 0z" fill="#9DA5B6" p-id="11330"></path><path d="M371.264 0.128H0.192v372.288c0 59.52 48.128 107.84 107.52 107.84h371.136V108.032C478.848 48.448 430.656 0.128 371.2 0.128z m21.504 393.856H107.712a21.504 21.504 0 0 1-21.504-21.568V86.4h285.056c11.904 0 21.504 9.6 21.504 21.568v285.952z m151.68-285.952v372.224h371.072c59.392 0 107.52-48.256 107.52-107.84V0.128h-371.008c-59.456 0-107.584 48.32-107.584 107.904z m371.072 285.952H630.464V108.032c0-11.904 9.6-21.568 21.568-21.568h284.992v285.952a21.632 21.632 0 0 1-21.504 21.568zM0.192 650.752v372.288H371.2c59.392 0 107.52-48.32 107.52-107.904V542.848H107.776c-59.392 0-107.52 48.32-107.52 107.904zM371.2 936.704H86.208v-285.952c0-11.904 9.6-21.568 21.504-21.568h285.056V915.2c0 11.904-9.6 21.568-21.504 21.568z m544.256-393.856H544.448V915.2c0 59.584 48.128 107.904 107.52 107.904h371.136v-372.288c0-59.52-48.192-107.904-107.52-107.904z m21.504 393.856h-284.992a21.568 21.568 0 0 1-21.568-21.568V629.184h285.056c11.904 0 21.504 9.664 21.504 21.568v285.952z" fill="#9DA5B6" p-id="11331"></path></svg>
