<svg t="1735176891332" class="icon" viewBox="0 0 1024 1024" version="1.1" xmlns="http://www.w3.org/2000/svg" p-id="8561" width="200" height="200"><path d="M754.56 497.792a32.256 32.256 0 0 1 30.72-0.192l183.68 97.728a31.68 31.68 0 0 1 16.896 27.904v202.624a31.68 31.68 0 0 1-15.808 27.328l-183.68 106.88a32.256 32.256 0 0 1-32.896-0.256L576.64 852.928a31.616 31.616 0 0 1-15.36-27.072V623.232c0-11.52 6.272-22.08 16.384-27.648z m-522.88 0a32.256 32.256 0 0 1 30.72-0.192l183.68 97.728a31.68 31.68 0 0 1 16.896 27.904v202.624a31.68 31.68 0 0 1-15.808 27.328l-183.68 106.88a32.256 32.256 0 0 1-32.896-0.256L53.76 852.928a31.616 31.616 0 0 1-15.36-27.072V623.232c0-11.52 6.272-22.08 16.384-27.648zM770.432 561.6L625.28 641.92v166.208l145.28 87.68 151.296-88.064v-165.44l-151.36-80.64z m-522.816 0L102.4 641.92v166.208l145.152 87.68 151.36-88.064V642.24L247.616 561.6zM500.48 53.952a32.256 32.256 0 0 1 30.72-0.256l183.68 97.728a31.68 31.68 0 0 1 16.896 27.968v202.56a31.68 31.68 0 0 1-15.808 27.392l-183.68 106.88a32.256 32.256 0 0 1-32.896-0.256L322.56 409.088a31.616 31.616 0 0 1-15.36-27.136v-202.56a31.642 31.642 0 0 1 16.384-27.712z m15.872 63.744L371.2 197.952v166.144l145.152 87.808 151.36-88.064V198.272l-151.36-80.576z" fill="#333333" p-id="8562"></path></svg>
